<?xml version="1.0" encoding="utf-8" ?>
<svg xmlns="http://www.w3.org/2000/svg" xmlns:xlink="http://www.w3.org/1999/xlink" width="500" height="500">
	<path fill="#FEFEFE" d="M241.947 2.01987Q248.033 1.82199 254.121 1.92292Q260.209 2.02384 266.285 2.42334Q272.361 2.82283 278.41 3.51993Q284.459 4.21702 290.467 5.21004Q296.474 6.20306 302.426 7.48962Q308.378 8.77617 314.259 10.3532Q320.14 11.9301 325.937 13.7938Q331.734 15.6574 337.432 17.8032Q343.131 19.9489 348.717 22.3717Q354.304 24.7944 359.764 27.4883Q365.225 30.1822 370.547 33.1408Q375.869 36.0994 381.04 39.3155Q386.21 42.5315 391.216 45.9974Q396.223 49.4633 401.053 53.1706Q405.884 56.8779 410.526 60.8178Q415.169 64.7576 419.613 68.9205Q424.057 73.0833 428.291 77.4592Q432.525 81.835 436.54 86.4134Q440.554 90.9917 444.339 95.7614Q448.124 100.531 451.671 105.481Q455.217 110.431 458.516 115.548Q461.816 120.666 464.86 125.939Q467.904 131.213 470.686 136.629Q473.468 142.046 475.981 147.592Q478.494 153.139 480.732 158.802Q482.969 164.465 484.926 170.23Q486.884 175.996 488.556 181.851Q490.228 187.706 491.61 193.636Q492.993 199.566 494.083 205.557Q495.173 211.548 495.968 217.585Q496.763 223.622 497.261 229.691Q497.759 235.759 497.958 241.845Q498.157 247.931 498.058 254.019Q497.959 260.107 497.561 266.183Q497.163 272.259 496.467 278.309Q495.772 284.358 494.78 290.366Q493.789 296.373 492.504 302.325Q491.219 308.277 489.643 314.159Q488.068 320.041 486.206 325.838Q484.343 331.636 482.199 337.335Q480.055 343.034 477.633 348.621Q475.212 354.207 472.519 359.669Q469.827 365.13 466.87 370.453Q463.913 375.776 460.698 380.947Q457.483 386.118 454.018 391.126Q450.554 396.133 446.848 400.964Q443.142 405.796 439.203 410.439Q435.264 415.083 431.103 419.528Q426.941 423.973 422.566 428.208Q418.191 432.443 413.614 436.459Q409.037 440.475 404.268 444.261Q399.499 448.047 394.55 451.595Q389.602 455.143 384.485 458.443Q379.368 461.744 374.095 464.789Q368.823 467.835 363.407 470.618Q357.991 473.402 352.445 475.916Q346.9 478.43 341.237 480.669Q335.575 482.909 329.809 484.867Q324.044 486.826 318.189 488.499Q312.335 490.173 306.405 491.557Q300.475 492.941 294.485 494.033Q288.494 495.125 282.458 495.921Q276.421 496.717 270.352 497.217Q264.284 497.716 258.198 497.917Q252.11 498.118 246.02 498.02Q239.93 497.922 233.852 497.525Q227.773 497.129 221.722 496.434Q215.671 495.74 209.661 494.749Q203.651 493.758 197.697 492.474Q191.743 491.19 185.859 489.615Q179.975 488.039 174.175 486.178Q168.376 484.316 162.675 482.171Q156.974 480.027 151.385 477.606Q145.796 475.184 140.332 472.491Q134.869 469.798 129.544 466.841Q124.219 463.883 119.046 460.667Q113.873 457.452 108.864 453.986Q103.855 450.521 99.0216 446.814Q94.1886 443.107 89.5434 439.167Q84.8981 435.227 80.4518 431.064Q76.0055 426.901 71.7688 422.524Q67.5322 418.148 63.5154 413.569Q59.4986 408.99 55.7114 404.22Q51.9241 399.449 48.3756 394.499Q44.827 389.548 41.5257 384.429Q38.2244 379.31 35.1783 374.036Q32.1321 368.761 29.3485 363.343Q26.5649 357.926 24.0506 352.378Q21.5362 346.83 19.2971 341.165Q17.0581 335.501 15.0997 329.733Q13.1413 323.965 11.4683 318.109Q9.79534 312.252 8.4118 306.32Q7.02827 300.388 5.93752 294.395Q4.84676 288.403 4.05141 282.364Q3.25606 276.325 2.75803 270.254Q2.26 264.184 2.06049 258.096Q1.86099 252.008 1.9605 245.918Q2.06001 239.828 2.45828 233.75Q2.85655 227.672 3.55262 221.621Q4.24869 215.569 5.24088 209.56Q6.23308 203.55 7.51901 197.596Q8.80494 191.642 10.3815 185.759Q11.9581 179.875 13.8215 174.076Q15.6849 168.277 17.8306 162.577Q19.9764 156.876 22.3993 151.288Q24.8222 145.699 27.5165 140.237Q30.2107 134.774 33.1698 129.45Q36.1289 124.126 39.3457 118.954Q42.5625 113.781 46.0293 108.773Q49.4961 103.765 53.2045 98.9327Q56.9128 94.1006 60.8539 89.4564Q64.7949 84.8121 68.9591 80.3669Q73.1234 75.9216 77.5007 71.6861Q81.8781 67.4505 86.458 63.4349Q91.0379 59.4193 95.8094 55.6333Q100.581 51.8473 105.532 48.3Q110.484 44.7528 115.604 41.4527Q120.723 38.1527 125.999 35.108Q131.274 32.0632 136.693 29.281Q142.111 26.4987 147.66 23.9858Q153.208 21.4728 158.873 19.2352Q164.538 16.9976 170.307 15.0407Q176.075 13.0838 181.932 11.4123Q187.789 9.74084 193.721 8.35883Q199.654 6.97682 205.647 5.8876Q211.639 4.79838 217.678 4.00457Q223.718 3.21077 229.788 2.71429Q235.859 2.21782 241.947 2.01987Z"/>
	<path fill="#E51C23" d="M250.665 47.6723C252.076 48.9141 277.482 129.163 280.424 137.721L339.022 137.67L361.012 137.694C365.651 137.709 370.322 137.854 374.954 137.609C372.581 139.706 369.86 141.51 367.303 143.382L355.031 152.386L320.303 177.573C313.018 182.873 305.566 188.034 298.627 193.785C300.763 201.174 303.343 208.516 305.732 215.832L316.625 249.388L322.928 268.834C324.578 273.971 326.095 279.14 328.299 284.074C309.824 271 291.547 257.601 273.263 244.26C269.926 241.825 252.96 228.912 251.046 228.275C247.794 229.995 244.802 232.488 241.82 234.635L223.678 247.846C207.016 259.991 190.05 271.804 173.62 284.254C175.315 280.9 176.292 277.05 177.444 273.48L183.108 255.914L203.351 193.661C183.744 178.518 163.319 164.28 143.274 149.712C137.662 145.635 131.954 141.658 126.441 137.449C132.582 137.888 138.778 137.728 144.933 137.725L172.261 137.701L202.305 137.688C208.728 137.686 215.201 137.832 221.615 137.472C223.242 133.096 224.464 128.497 225.919 124.052Q231.033 108.655 235.968 93.1998C240.83 78.0316 246.198 62.9561 250.665 47.6723Z"/>
	<path d="M179.169 322.086C186.106 321.894 193.065 321.985 200.004 321.973C204.611 321.965 209.418 321.683 213.998 322.138Q215.886 322.308 217.733 322.734Q219.581 323.159 221.353 323.832Q221.926 324.056 222.487 324.307Q223.048 324.559 223.596 324.837Q224.144 325.116 224.678 325.42Q225.212 325.725 225.73 326.056Q226.249 326.386 226.751 326.741Q227.253 327.097 227.736 327.476Q228.22 327.855 228.685 328.258Q229.15 328.66 229.595 329.084Q230.04 329.509 230.463 329.955Q230.887 330.4 231.288 330.866Q231.689 331.332 232.068 331.816Q232.446 332.301 232.8 332.804Q233.154 333.306 233.484 333.826Q233.813 334.345 234.117 334.879Q234.42 335.414 234.697 335.963Q234.975 336.511 235.225 337.073C237.693 342.705 237.851 349.858 235.535 355.567C232.704 362.546 227.066 367.185 220.256 370.061C222.716 374.196 224.8 378.646 227.119 382.874C229.792 387.75 233.988 394.338 235.77 399.412C236.08 400.293 236.384 401.143 235.96 402.011C234.153 403.09 224.802 402.957 222.345 402.762C221.279 402.678 221.08 402.562 220.376 401.741C218.183 398.53 216.607 394.597 214.866 391.105L204.815 371.045Q198.399 370.967 191.982 371.015L192.085 389.68C192.101 393.797 192.307 398.046 191.807 402.135C191.724 402.162 191.642 402.192 191.558 402.216C189.178 402.899 179.813 403.413 177.731 402.253C177.217 400.957 177.169 399.329 177.113 397.945C176.911 392.957 177.053 387.912 177.054 382.918L177.065 355.614C177.067 349.901 176.42 326.615 177.587 322.696C178.129 322.122 178.405 322.198 179.169 322.086Z"/>
	<path fill="#FEFEFE" d="M192.008 335.948C197.429 336.064 209.069 335.346 213.624 336.375Q214.236 336.509 214.829 336.714Q215.421 336.918 215.987 337.189Q216.552 337.46 217.082 337.794Q217.612 338.129 218.1 338.522C220.332 340.319 222.054 343.188 222.326 346.068C222.659 349.582 221.216 352.647 219.001 355.251C217.489 356.679 216.065 357.679 214.047 358.303C209.314 359.768 197.668 358.96 192.084 358.904C191.827 351.28 192.048 343.581 192.008 335.948Z"/>
	<path d="M263.55 320.784C264.261 320.745 265.411 320.572 266.06 320.825C267.271 321.298 267.974 322.502 268.596 323.579C271.323 328.299 273.309 333.666 275.612 338.627C281.503 351.315 287.156 364.271 293.546 376.706C295.836 370.812 298.879 365.02 301.565 359.284L315.744 328.851C316.63 326.953 318.688 321.533 320.613 320.918C321.816 320.534 322.992 320.698 324.062 321.324C325.29 324.218 325.601 327.621 326.158 330.703Q327.757 339.352 329.203 348.028L335.696 385.12C336.51 389.845 337.509 394.577 338.195 399.32C338.308 400.104 338.494 400.918 338.214 401.681C337.674 402.208 337.216 402.395 336.489 402.54C334.513 402.934 325.755 403.152 324.181 402.056C322.903 399.739 319.529 374.824 318.787 370.306C318.273 365.748 317.458 361.2 316.784 356.661C314.038 363.839 310.381 370.925 307.278 377.998L301.084 392.027C299.784 394.985 298.585 398.108 297.004 400.924C296.364 402.064 295.673 403.275 294.408 403.8C293.651 404.114 292.743 404.122 291.985 403.812C291.178 403.482 290.797 402.869 290.372 402.147C287.244 396.834 285.079 390.678 282.544 385.035C278.276 375.536 273.771 366.118 269.735 356.518C269.375 360.437 268.592 364.304 267.958 368.185C267.353 371.894 266.874 375.627 266.302 379.342C265.299 385.852 264.661 392.583 263.364 399.026C263.198 399.851 262.819 401.899 262.118 402.346C260.99 403.066 252.374 402.922 250.71 402.69C250.11 402.606 249.001 402.342 248.69 401.757C248.272 400.972 248.538 399.678 248.657 398.83C249.64 391.839 251.115 384.904 252.391 377.962L255.888 357.8L259.783 335.895C260.492 331.852 260.976 327.645 261.948 323.667C262.24 322.474 262.434 321.451 263.55 320.784Z"/>
	<path d="M128.77 320.486C129.319 320.661 129.842 320.842 130.258 321.258C131.194 322.191 131.89 323.606 132.475 324.787C134.238 328.343 135.751 332.056 137.38 335.677L145.471 353.361C152.293 368.193 159.407 382.976 165.893 397.954C166.264 398.811 167.069 400.379 167.026 401.308C167.01 401.643 166.638 401.875 166.388 402.038C164.897 403.009 155.274 403.131 153.562 402.464C151.014 401.47 146.944 390.668 145.723 387.979L128.375 388.008L111.331 387.97C109.631 391.339 106.908 400.061 104.011 402.098C102.313 403.292 94.5203 402.988 92.2722 402.515C91.2971 402.31 90.6008 402.048 90.049 401.183C90.3632 399.98 90.8669 398.803 91.3542 397.66C93.3573 392.963 95.6521 388.366 97.7858 383.725L112.814 351.18L121.097 333.166C122.656 329.772 124.091 326.08 126.04 322.902C126.766 321.718 127.477 321.008 128.77 320.486Z"/>
	<path fill="#FEFEFE" d="M128.075 349.704C130.119 351.832 138.273 371.195 140.167 375.296L129.125 375.276L116.894 375.267C118.996 370.88 120.901 366.371 122.888 361.93C124.687 357.908 126.664 353.879 128.075 349.704Z"/>
	<path d="M345.294 322.091C349.477 321.967 353.727 321.816 357.902 322.145C359.313 324.422 361.1 326.559 362.634 328.77C367.475 335.745 372.461 342.672 377.111 349.774C379.914 344.929 383.533 340.292 386.725 335.684C389.751 331.316 392.712 326.191 396.364 322.344C399.553 321.886 407.991 321.294 410.713 322.605C411.02 323.073 411.261 323.421 411.349 323.982C411.445 324.595 411.221 324.974 410.931 325.501C409.118 328.802 406.542 331.91 404.387 335.018L390.06 355.649C388.35 358.044 385.94 360.753 384.955 363.51C384.031 366.094 384.623 389.033 384.621 393.532C384.62 395.887 384.956 398.892 384.279 401.136C384.113 401.685 383.897 401.952 383.395 402.203C380.936 403.434 372.256 402.916 369.569 401.993C369.347 398.614 369.475 395.161 369.478 391.772L369.502 374.635C369.511 371.3 369.813 367.619 369.319 364.327C369.038 362.453 345.827 329.34 342.765 324.468C342.951 323.96 343.132 323.26 343.429 322.815C343.891 322.124 344.554 322.201 345.294 322.091Z"/>
	<path d="M247.886 435.66Q248.093 435.627 248.302 435.604Q248.511 435.581 248.721 435.568Q248.93 435.555 249.14 435.553Q249.35 435.55 249.56 435.558Q249.77 435.566 249.979 435.584Q250.189 435.602 250.397 435.631Q250.605 435.659 250.811 435.698Q251.018 435.736 251.222 435.785Q251.426 435.833 251.628 435.892Q251.83 435.95 252.028 436.019Q252.227 436.087 252.422 436.165Q252.617 436.243 252.808 436.33Q252.999 436.418 253.185 436.515Q253.372 436.611 253.553 436.717Q253.735 436.823 253.911 436.937Q254.087 437.052 254.257 437.175Q254.427 437.298 254.591 437.429Q254.755 437.56 254.913 437.699Q255.07 437.838 255.221 437.985Q255.371 438.131 255.514 438.285Q255.657 438.439 255.792 438.6Q255.928 438.76 256.055 438.927Q256.182 439.094 256.301 439.267Q256.42 439.44 256.53 439.619Q256.641 439.798 256.742 439.982Q256.844 440.166 256.936 440.354Q257.028 440.543 257.111 440.736Q257.194 440.929 257.268 441.126Q257.341 441.323 257.405 441.523Q257.468 441.723 257.522 441.926Q257.576 442.129 257.62 442.334Q257.663 442.54 257.697 442.747Q257.731 442.954 257.754 443.163Q257.778 443.372 257.791 443.581Q257.804 443.791 257.807 444.001Q257.81 444.211 257.802 444.421Q257.795 444.631 257.777 444.84Q257.76 445.049 257.732 445.258Q257.704 445.466 257.666 445.672Q257.628 445.879 257.58 446.083Q257.531 446.288 257.473 446.489Q257.415 446.691 257.347 446.89Q257.279 447.089 257.202 447.284Q257.124 447.479 257.037 447.67Q256.95 447.861 256.854 448.048Q256.758 448.235 256.652 448.416Q256.547 448.598 256.433 448.774Q256.319 448.951 256.196 449.121Q256.073 449.292 255.942 449.456Q255.812 449.62 255.673 449.778Q255.534 449.936 255.388 450.086Q255.242 450.237 255.088 450.38Q254.935 450.524 254.774 450.66Q254.614 450.795 254.447 450.923Q254.28 451.05 254.108 451.17Q253.935 451.289 253.756 451.4Q253.578 451.51 253.394 451.612Q253.21 451.714 253.022 451.807Q252.834 451.9 252.641 451.983Q252.448 452.066 252.251 452.14Q252.055 452.214 251.855 452.278Q251.655 452.342 251.452 452.396Q251.249 452.451 251.044 452.495Q250.838 452.539 250.631 452.573Q250.423 452.607 250.214 452.631Q250.005 452.655 249.795 452.669Q249.584 452.682 249.374 452.686Q249.163 452.689 248.953 452.682Q248.742 452.675 248.532 452.657Q248.323 452.64 248.114 452.612Q247.905 452.585 247.698 452.547Q247.491 452.509 247.286 452.461Q247.081 452.413 246.878 452.355Q246.676 452.296 246.476 452.229Q246.277 452.161 246.081 452.083Q245.886 452.005 245.694 451.918Q245.502 451.831 245.315 451.734Q245.128 451.638 244.946 451.532Q244.763 451.427 244.587 451.312Q244.41 451.198 244.239 451.075Q244.068 450.952 243.903 450.821Q243.738 450.69 243.58 450.551Q243.422 450.411 243.271 450.265Q243.12 450.118 242.976 449.964Q242.833 449.81 242.697 449.649Q242.561 449.488 242.433 449.321Q242.305 449.154 242.186 448.98Q242.066 448.807 241.955 448.628Q241.845 448.448 241.743 448.264Q241.641 448.08 241.548 447.891Q241.455 447.702 241.372 447.508Q241.289 447.315 241.215 447.118Q241.141 446.92 241.077 446.72Q241.014 446.519 240.96 446.315Q240.906 446.112 240.862 445.906Q240.818 445.7 240.784 445.492Q240.75 445.284 240.727 445.075Q240.703 444.866 240.69 444.655Q240.677 444.445 240.674 444.235Q240.671 444.024 240.679 443.814Q240.686 443.603 240.704 443.393Q240.722 443.183 240.75 442.975Q240.778 442.766 240.817 442.559Q240.855 442.352 240.903 442.147Q240.952 441.942 241.01 441.74Q241.069 441.537 241.137 441.338Q241.206 441.139 241.284 440.943Q241.362 440.748 241.449 440.556Q241.537 440.365 241.634 440.178Q241.731 439.991 241.837 439.809Q241.943 439.627 242.057 439.45Q242.172 439.274 242.296 439.103Q242.419 438.932 242.55 438.768Q242.682 438.603 242.822 438.445Q242.961 438.288 243.108 438.137Q243.255 437.986 243.409 437.843Q243.564 437.699 243.725 437.564Q243.886 437.428 244.054 437.301Q244.221 437.173 244.395 437.054Q244.569 436.935 244.748 436.825Q244.927 436.714 245.112 436.613Q245.296 436.511 245.486 436.419Q245.675 436.327 245.868 436.244Q246.062 436.161 246.26 436.088Q246.457 436.014 246.658 435.951Q246.859 435.887 247.062 435.834Q247.266 435.78 247.472 435.737Q247.678 435.693 247.886 435.66Z"/>
	<path fill="#FEFEFE" d="M249.005 438.222Q249.148 438.218 249.291 438.22Q249.434 438.223 249.576 438.232Q249.719 438.242 249.861 438.258Q250.003 438.275 250.144 438.298Q250.285 438.321 250.425 438.351Q250.565 438.381 250.703 438.418Q250.841 438.455 250.977 438.498Q251.113 438.542 251.247 438.591Q251.381 438.641 251.513 438.698Q251.644 438.754 251.773 438.817Q251.901 438.88 252.026 438.948Q252.152 439.017 252.274 439.092Q252.395 439.167 252.514 439.247Q252.632 439.328 252.746 439.414Q252.86 439.5 252.969 439.592Q253.079 439.684 253.184 439.78Q253.289 439.877 253.39 439.979Q253.49 440.081 253.586 440.187Q253.681 440.294 253.771 440.405Q253.861 440.516 253.946 440.631Q254.03 440.747 254.109 440.866Q254.188 440.985 254.261 441.108Q254.334 441.231 254.401 441.357Q254.468 441.483 254.529 441.613Q254.59 441.742 254.644 441.874Q254.699 442.006 254.747 442.141Q254.795 442.276 254.836 442.413Q254.878 442.549 254.912 442.688Q254.947 442.827 254.975 442.967Q255.003 443.107 255.025 443.248Q255.046 443.39 255.06 443.532Q255.075 443.674 255.082 443.817Q255.089 443.96 255.09 444.103Q255.091 444.246 255.084 444.389Q255.078 444.531 255.064 444.674Q255.051 444.816 255.031 444.958Q255.011 445.099 254.984 445.24Q254.957 445.38 254.923 445.519Q254.889 445.658 254.849 445.795Q254.809 445.932 254.762 446.067Q254.715 446.202 254.661 446.335Q254.608 446.467 254.548 446.597Q254.488 446.727 254.422 446.854Q254.356 446.98 254.284 447.104Q254.212 447.227 254.134 447.347Q254.056 447.467 253.972 447.583Q253.888 447.699 253.799 447.811Q253.71 447.922 253.615 448.03Q253.521 448.137 253.421 448.239Q253.322 448.342 253.217 448.44Q253.113 448.537 253.004 448.63Q252.895 448.722 252.781 448.809Q252.668 448.896 252.55 448.978Q252.433 449.059 252.312 449.135Q252.19 449.211 252.066 449.28Q251.941 449.35 251.813 449.414Q251.685 449.477 251.554 449.535Q251.423 449.592 251.289 449.643Q251.156 449.694 251.02 449.739Q250.884 449.783 250.746 449.821Q250.608 449.859 250.469 449.89Q250.329 449.921 250.188 449.945Q250.047 449.969 249.905 449.987Q249.764 450.004 249.621 450.015Q249.425 450.03 249.229 450.031Q249.033 450.033 248.838 450.021Q248.642 450.01 248.447 449.985Q248.253 449.961 248.06 449.923Q247.868 449.886 247.678 449.836Q247.489 449.786 247.303 449.724Q247.117 449.661 246.936 449.587Q246.754 449.512 246.578 449.426Q246.402 449.339 246.233 449.241Q246.063 449.143 245.9 449.034Q245.737 448.925 245.581 448.806Q245.426 448.686 245.279 448.557Q245.132 448.427 244.994 448.288Q244.855 448.149 244.727 448.001Q244.598 447.853 244.479 447.697Q244.361 447.541 244.253 447.377Q244.145 447.213 244.048 447.043Q243.951 446.872 243.866 446.696Q243.781 446.519 243.707 446.338Q243.634 446.156 243.573 445.969Q243.512 445.783 243.463 445.593Q243.414 445.403 243.378 445.211Q243.342 445.018 243.319 444.823Q243.296 444.629 243.286 444.433Q243.275 444.237 243.278 444.041Q243.281 443.845 243.297 443.649Q243.313 443.454 243.341 443.26Q243.37 443.066 243.412 442.875Q243.453 442.683 243.507 442.495Q243.561 442.306 243.628 442.122Q243.694 441.937 243.773 441.758Q243.852 441.578 243.942 441.404Q244.032 441.23 244.134 441.062Q244.236 440.895 244.348 440.734Q244.461 440.574 244.584 440.421Q244.707 440.269 244.839 440.124Q244.972 439.98 245.114 439.845Q245.256 439.71 245.407 439.585Q245.558 439.459 245.716 439.344Q245.875 439.229 246.041 439.125Q246.207 439.021 246.379 438.927Q246.552 438.834 246.73 438.753Q246.909 438.672 247.092 438.602Q247.275 438.533 247.463 438.476Q247.65 438.418 247.841 438.374Q248.032 438.329 248.225 438.298Q248.419 438.266 248.614 438.247Q248.809 438.228 249.005 438.222Z"/>
	<path d="M329.919 435.533C332.639 435.369 334.794 435.881 336.891 437.754C338.231 438.952 340.186 441.537 340.086 443.448C340.051 444.107 339.877 444.625 339.349 445.053C337.73 446.363 327.296 445.838 324.873 445.536C326.503 447.606 327.848 449.056 330.228 450.205C331.529 450.039 332.705 449.817 333.965 449.43C334.945 449.023 335.802 448.372 336.678 447.779L337.069 447.891C337.393 448.706 337.761 449.494 337.283 450.344C336.782 451.236 335.64 451.731 334.716 452.032C332.524 452.746 329.727 452.922 327.624 451.846C325.412 450.715 323.664 448.885 322.927 446.479C322.269 444.331 322.583 442.083 323.687 440.14C325.104 437.648 327.253 436.334 329.919 435.533Z"/>
	<path fill="#FEFEFE" d="M329.794 438.276C330.593 438.194 331.403 438.104 332.199 438.263C334.714 438.765 336.127 440.965 337.385 442.982L332.927 442.996L325.034 442.936C326.329 440.917 327.686 439.458 329.794 438.276Z"/>
	<path d="M167.973 435.357C169.246 435.334 171.385 435.05 172.535 435.615C173.189 435.936 173.233 436.077 173.508 436.711C173.452 437.267 173.369 437.543 173.061 438.011C170.974 438.678 168.492 437.964 166.323 438.406C165.468 438.58 164.585 439.172 164.195 439.984C163.883 440.631 163.96 440.806 164.185 441.43C166.285 443.384 170.545 443.036 173.265 443.427C174.422 444.552 175.678 446.602 175.652 448.268C175.637 449.232 175.181 450.016 174.494 450.663C172.027 452.986 168.308 452.626 165.187 452.583C164.773 452.543 164.967 452.538 164.541 452.596C164.018 452.667 163.431 452.81 162.918 452.621C162.228 452.367 161.602 451.781 161.375 451.093C162.907 448.797 169.717 451.12 172.413 449.249C172.682 448.724 172.815 448.566 172.699 447.958C172.032 444.495 166.288 446.259 163.619 444.412C162.564 443.681 161.653 442.492 161.458 441.198C161.266 439.923 161.819 438.731 162.624 437.773C164.187 435.911 165.664 435.526 167.973 435.357Z"/>
	<path d="M204.08 428.855L204.401 428.869C205.11 428.903 206.164 428.827 206.639 429.444C207.19 430.16 207.194 430.789 207.098 431.64C206.955 432.91 206.957 434.173 206.946 435.451L211.699 435.337L212.042 438.267L206.989 438.269C206.935 441.745 206.64 445.601 207.31 449.014C207.916 449.531 208.48 450.111 209.251 450.361C209.967 450.132 210.096 449.851 210.57 449.284C211.142 449.214 211.897 449.095 212.462 449.176C213.023 449.256 213.09 449.358 213.38 449.816C213.352 450.1 213.367 450.155 213.222 450.451C212.573 451.781 210.881 452.435 209.604 452.923C208.116 452.549 206.497 452.066 205.387 450.951C204.758 450.319 204.437 449.688 204.265 448.814C203.439 444.616 203.982 433.643 204.08 428.855Z"/>
	<path d="M287.101 435.045C288.064 435.39 288.794 436.345 289.495 437.065C290.958 436.537 294.151 435.004 295.563 435.597C296.096 436.175 296.147 436.264 296.295 437.035C295.396 438.877 292.164 438.548 290.69 439.944C289.401 441.163 289.327 443.524 289.267 445.188L289.187 451.719C288.606 452.111 288.171 452.469 287.802 453.072C287.723 453.2 287.647 453.331 287.57 453.461L287.207 453.424C286.178 451.449 286.436 437.524 287.101 435.045Z"/>
</svg>
